# xmcd CD database file
#
# Track frame offsets:
#	150
#	18237
#	41385
#	69680
#	89842
#	101397
#	122025
#	139307
#	156542
#	182342
#	204725
#	217020
#	233522
#
# Disc length: 3370 seconds
#
# Revision: 0
# Processed by: cddbd v1.4PL0 Copyright (c) Steve Scherf et al.
# Submitted via: CDex 1.40Beta8
#
DISCID=b80d280d
DTITLE=Eric Bibb - Painting Signs
DYEAR=2001
DGENRE=Blues
TTITLE0=Kokomo
TTITLE1=Hope in a Hopeless World
TTITLE2=Five Miles Above
TTITLE3=I Heard the Angels Singing
TTITLE4=Delia's Gone
TTITLE5=Got to Do Better
TTITLE6=The Light Was Worth the Candle
TTITLE7=Angel
TTITLE8=Walkin' Home
TTITLE9=To Know You
TTITLE10=Honest I Do
TTITLE11=Paintin' Signs
TTITLE12=Don't Ever Let Nobody Drag Your Spirit Down
EXTD=YEAR: 2001 ID3G: 0
EXTT0=
EXTT1=
EXTT2=
EXTT3=
EXTT4=
EXTT5=
EXTT6=
EXTT7=
EXTT8=
EXTT9=
EXTT10=
EXTT11=
EXTT12=
PLAYORDER=
